<svg xmlns="http://www.w3.org/2000/svg" width="1024" height="1024" viewBox="0 0 1024 1024">
<g>
<path d="M 1024.00,1024.00 L 0.00,1024.00 L 0.00,0.00 L 1024.00,0.00 M 681.03,214.50 L 678.46,217.08 L 676.54,219.09 L 675.51,220.20 L 671.22,224.91 L 669.01,227.44 L 664.62,232.55 L 662.64,234.96 L 660.72,237.33 L 659.85,238.43 L 658.20,240.56 L 657.50,241.50 L 656.72,242.52 L 656.04,243.38 L 655.64,243.88 L 653.84,246.10 L 652.75,247.41 L 650.46,250.15 L 649.23,251.61 L 646.72,254.56 L 645.48,256.00 L 641.48,260.71 L 638.66,264.09 L 637.29,265.77 L 634.60,269.08 L 633.41,270.57 L 632.26,272.02 L 631.75,272.68 L 630.76,273.95 L 630.34,274.50 L 627.60,278.03 L 625.61,280.53 L 624.62,281.74 L 622.66,284.13 L 621.76,285.18 L 620.06,287.17 L 619.39,287.92 L 617.06,290.59 L 615.26,292.72 L 614.32,293.86 L 612.43,296.18 L 611.52,297.32 L 609.76,299.55 L 609.00,300.55 L 607.68,302.24 L 606.63,303.57 L 606.04,304.31 L 603.48,307.47 L 602.03,309.24 L 595.89,316.64 L 593.00,320.01 L 588.65,325.11 L 585.82,328.44 L 584.56,329.94 L 582.14,332.80 L 581.19,333.94 L 580.29,335.01 L 579.92,335.46 L 579.24,336.28 L 579.00,336.57 L 578.05,337.72 L 577.21,338.72 L 576.69,339.33 L 575.61,340.61 L 574.99,341.34 L 573.71,342.84 L 573.00,343.66 L 570.05,347.11 L 568.44,348.98 L 565.15,352.78 L 563.50,354.68 L 553.42,366.50 L 550.36,370.16 L 549.10,371.69 L 547.88,373.17 L 547.37,373.81 L 546.40,375.02 L 546.02,375.50 L 543.38,378.82 L 541.33,381.35 L 540.24,382.67 L 538.04,385.32 L 536.99,386.58 L 534.92,389.03 L 534.02,390.07 L 531.06,393.55 L 528.89,396.11 L 527.80,397.41 L 525.64,400.00 L 524.65,401.20 L 522.76,403.50 L 522.00,404.44 L 519.36,407.68 L 517.33,410.17 L 516.25,411.48 L 514.09,414.11 L 513.06,415.37 L 511.03,417.82 L 510.16,418.87 L 507.14,422.58 L 504.81,425.50 L 503.59,427.05 L 501.14,430.19 L 499.97,431.71 L 497.69,434.69 L 496.71,436.00 L 493.54,440.16 L 491.29,443.07 L 490.18,444.47 L 487.99,447.22 L 487.02,448.42 L 485.17,450.67 L 484.47,451.50 L 483.27,452.92 L 482.36,454.03 L 481.85,454.66 L 479.70,457.33 L 478.52,458.82 L 473.62,465.11 L 471.45,468.00 L 469.46,470.62 L 467.81,472.80 L 466.84,474.06 L 464.82,476.71 L 463.70,478.17 L 461.38,481.19 L 460.14,482.80 L 454.97,489.52 L 452.24,493.06 L 446.72,500.19 L 444.03,503.65 L 435.84,514.23 L 430.45,521.24 L 427.99,524.45 L 425.57,527.61 L 424.46,529.06 L 422.31,531.89 L 421.36,533.15 L 419.54,535.55 L 418.78,536.56 L 417.37,538.44 L 416.84,539.15 L 413.31,543.84 L 410.69,547.25 L 409.35,548.96 L 406.69,552.34 L 405.45,553.88 L 403.07,556.83 L 402.09,558.00 L 395.01,566.50 L 457.47,566.76 L 466.58,566.79 L 472.22,566.81 L 474.83,566.82 L 479.91,566.83 L 482.26,566.83 L 486.81,566.83 L 488.91,566.83 L 492.97,566.82 L 494.82,566.82 L 498.41,566.80 L 500.04,566.79 L 503.20,566.77 L 504.62,566.75 L 507.37,566.72 L 508.60,566.70 L 510.96,566.65 L 512.01,566.63 L 514.03,566.57 L 514.91,566.54 L 516.60,566.47 L 517.34,566.44 L 518.74,566.36 L 519.34,566.32 L 521.48,566.13 L 522.23,566.02 L 523.52,565.78 L 523.93,565.64 L 526.07,564.94 L 526.94,564.72 L 527.16,564.74 L 527.45,564.85 L 527.42,565.05 L 527.26,565.51 L 527.06,565.88 L 525.66,568.40 L 524.50,570.41 L 523.81,571.57 L 522.37,573.99 L 521.55,575.34 L 519.85,578.12 L 518.91,579.63 L 516.98,582.74 L 515.94,584.40 L 513.80,587.78 L 512.66,589.57 L 507.95,596.94 L 505.38,600.88 L 502.04,606.02 L 499.93,609.28 L 498.92,610.85 L 495.00,616.91 L 493.18,619.75 L 489.61,625.33 L 487.89,628.03 L 484.49,633.41 L 482.80,636.11 L 479.39,641.57 L 477.62,644.42 L 474.02,650.24 L 472.09,653.39 L 468.13,659.86 L 465.95,663.44 L 463.73,667.08 L 462.56,669.00 L 460.17,672.92 L 458.91,675.00 L 455.59,680.44 L 453.52,683.82 L 452.62,685.27 L 451.74,686.67 L 451.36,687.29 L 450.61,688.47 L 450.30,688.96 L 449.72,689.88 L 449.50,690.22 L 449.10,690.83 L 448.98,691.00 L 447.95,692.60 L 447.01,694.16 L 446.45,695.12 L 444.01,699.30 L 442.79,701.50 L 440.62,705.40 L 438.92,708.46 L 438.01,710.09 L 436.17,713.38 L 435.28,714.99 L 433.53,718.12 L 432.77,719.50 L 427.96,728.18 L 426.46,730.91 L 425.82,732.08 L 424.64,734.24 L 424.23,735.00 L 418.02,746.35 L 413.82,753.86 L 411.79,757.39 L 409.79,760.88 L 408.83,762.52 L 406.94,765.75 L 406.05,767.24 L 404.31,770.14 L 403.52,771.44 L 401.99,773.93 L 401.31,775.00 L 398.71,779.20 L 396.93,782.17 L 396.09,783.62 L 394.45,786.47 L 393.76,787.73 L 392.46,790.11 L 392.01,791.00 L 389.11,796.44 L 388.16,798.08 L 387.75,798.76 L 386.98,800.00 L 386.70,800.40 L 386.13,801.23 L 385.95,801.54 L 385.65,802.10 L 385.60,802.28 L 385.56,802.55 L 385.65,802.57 L 385.89,802.53 L 386.12,802.40 L 386.84,801.82 L 387.59,801.14 L 388.08,800.68 L 389.15,799.66 L 389.78,799.03 L 391.11,797.72 L 391.85,796.97 L 395.05,793.74 L 396.86,791.88 L 400.60,788.02 L 402.54,786.00 L 406.44,781.91 L 408.31,779.92 L 411.99,776.01 L 413.61,774.25 L 415.19,772.53 L 415.90,771.75 L 417.27,770.24 L 417.86,769.58 L 418.97,768.32 L 419.41,767.80 L 420.22,766.85 L 420.49,766.50 L 422.53,764.00 L 424.24,761.99 L 425.19,760.90 L 429.16,756.40 L 430.96,754.47 L 438.24,746.55 L 442.87,741.40 L 445.13,738.81 L 449.64,733.61 L 451.92,730.91 L 456.52,725.42 L 458.91,722.49 L 463.77,716.47 L 466.37,713.19 L 469.00,709.85 L 470.37,708.10 L 473.15,704.54 L 474.60,702.66 L 477.55,698.84 L 479.09,696.83 L 482.23,692.72 L 483.89,690.55 L 487.25,686.13 L 489.02,683.79 L 492.62,679.02 L 494.52,676.50 L 499.33,670.20 L 502.57,666.05 L 504.08,664.14 L 505.57,662.28 L 506.26,661.42 L 507.61,659.75 L 508.22,659.01 L 509.39,657.60 L 509.89,657.01 L 510.83,655.91 L 511.20,655.50 L 513.83,652.42 L 515.91,649.88 L 517.02,648.47 L 519.27,645.60 L 520.37,644.16 L 522.52,641.31 L 523.46,640.00 L 526.59,635.77 L 528.88,632.77 L 530.04,631.29 L 532.32,628.38 L 533.37,627.08 L 535.37,624.62 L 536.18,623.69 L 538.77,620.55 L 540.62,618.23 L 541.52,617.06 L 543.31,614.71 L 544.10,613.62 L 545.61,611.54 L 546.18,610.69 L 547.31,609.08 L 548.32,607.69 L 548.93,606.86 L 550.22,605.13 L 550.95,604.15 L 552.48,602.13 L 553.31,601.03 L 556.82,596.44 L 558.74,593.98 L 562.64,588.98 L 564.60,586.50 L 568.91,581.04 L 571.60,577.64 L 572.86,576.05 L 575.32,572.93 L 576.47,571.48 L 578.71,568.63 L 579.76,567.30 L 581.81,564.70 L 582.77,563.49 L 584.64,561.11 L 585.52,559.99 L 588.86,555.72 L 590.34,553.82 L 593.18,550.18 L 594.46,548.52 L 596.94,545.31 L 598.10,543.81 L 602.54,537.98 L 604.78,535.00 L 608.64,529.94 L 611.54,526.19 L 613.14,524.14 L 616.46,519.92 L 618.26,517.64 L 621.96,512.99 L 623.94,510.52 L 627.98,505.48 L 630.12,502.83 L 634.48,497.44 L 636.77,494.63 L 641.42,488.94 L 643.83,485.99 L 648.73,480.03 L 651.26,476.96 L 656.46,470.66 L 659.74,466.68 L 661.17,464.93 L 662.57,463.24 L 663.19,462.48 L 664.38,461.03 L 664.89,460.41 L 665.84,459.25 L 666.21,458.80 L 666.88,457.99 L 667.09,457.73 L 670.15,453.96 L 608.57,454.35 L 596.21,454.42 L 588.35,454.46 L 584.67,454.47 L 577.49,454.50 L 574.21,454.51 L 567.88,454.53 L 565.09,454.53 L 562.36,454.53 L 561.11,454.53 L 558.66,454.53 L 557.55,454.53 L 555.41,454.52 L 554.46,454.52 L 552.64,454.51 L 551.86,454.51 L 550.38,454.49 L 549.78,454.49 L 548.67,454.47 L 548.26,454.47 L 547.53,454.45 L 547.32,454.44 L 547.00,454.42 L 547.00,454.41 L 547.13,454.09 L 547.33,453.69 L 547.48,453.40 L 548.23,452.01 L 548.77,451.05 L 549.93,448.98 L 550.62,447.79 L 552.04,445.31 L 552.80,444.01 L 554.32,441.40 L 555.06,440.13 L 556.53,437.66 L 557.18,436.56 L 558.42,434.50 L 558.91,433.72 L 559.37,432.98 L 559.55,432.69 L 559.89,432.17 L 560.01,432.00 L 561.02,430.40 L 561.95,428.84 L 562.49,427.88 L 564.83,423.70 L 565.99,421.50 L 569.27,415.35 L 571.68,410.88 L 572.99,408.46 L 575.70,403.48 L 577.18,400.79 L 580.20,395.27 L 581.84,392.30 L 585.20,386.22 L 587.01,382.97 L 590.71,376.30 L 592.69,372.74 L 596.75,365.47 L 598.92,361.60 L 603.35,353.70 L 605.71,349.50 L 609.69,342.38 L 612.52,337.31 L 613.91,334.82 L 616.64,329.91 L 617.86,327.73 L 619.04,325.60 L 619.57,324.64 L 620.59,322.79 L 621.02,322.00 L 623.90,316.82 L 625.99,313.07 L 627.04,311.20 L 629.13,307.51 L 630.08,305.83 L 631.90,302.64 L 632.63,301.39 L 637.07,293.37 L 638.42,290.81 L 638.98,289.70 L 640.00,287.63 L 640.34,286.89 L 641.68,284.12 L 642.86,281.84 L 643.54,280.59 L 646.44,275.34 L 647.84,273.00 L 650.11,269.15 L 651.74,266.35 L 652.56,264.94 L 654.16,262.16 L 654.88,260.89 L 656.26,258.46 L 656.79,257.50 L 658.71,254.05 L 660.24,251.30 L 661.06,249.82 L 662.72,246.82 L 663.54,245.35 L 665.14,242.47 L 665.85,241.18 L 670.66,232.94 L 672.29,230.28 L 673.03,229.13 L 674.43,226.97 L 674.97,226.18 L 676.84,223.50 L 678.25,221.47 L 678.99,220.41 L 680.46,218.28 L 681.16,217.28 L 682.52,215.32 L 683.09,214.50 L 687.24,208.50 M 683.18,477.50 L 681.02,480.54 L 679.16,483.02 L 678.10,484.38 L 673.64,490.02 L 671.55,492.50 L 668.12,496.63 L 665.64,499.67 L 664.39,501.21 L 661.93,504.27 L 660.82,505.68 L 658.68,508.40 L 657.84,509.50 L 652.77,515.96 L 651.26,517.82 L 650.65,518.55 L 649.52,519.87 L 649.17,520.25 L 646.63,523.00 L 646.89,547.80 L 646.94,557.98 L 646.92,564.50 L 646.88,567.39 L 646.83,570.21 L 646.81,571.48 L 646.75,573.92 L 646.71,574.98 L 646.64,576.96 L 646.60,577.76 L 646.51,579.20 L 646.46,579.69 L 646.24,581.83 L 646.09,583.03 L 646.01,583.53 L 645.68,585.25 L 645.45,585.83 L 644.94,586.80 L 644.56,587.13 L 643.72,587.71 L 643.13,587.98 L 641.45,588.85 L 640.08,589.64 L 639.30,590.12 L 635.96,592.27 L 634.10,593.55 L 630.33,596.20 L 628.51,597.57 L 624.96,600.29 L 623.50,601.52 L 620.91,603.62 L 618.76,605.31 L 617.57,606.22 L 612.57,610.00 L 610.32,611.61 L 601.11,618.41 L 595.21,622.96 L 592.28,625.35 L 586.38,630.22 L 583.33,632.88 L 580.25,635.58 L 578.66,637.00 L 575.46,639.90 L 573.79,641.44 L 570.42,644.58 L 568.65,646.25 L 565.07,649.66 L 563.19,651.48 L 559.35,655.20 L 557.33,657.19 L 553.21,661.25 L 551.03,663.43 L 546.58,667.88 L 544.22,670.26 L 539.40,675.14 L 536.84,677.74 L 531.61,683.08 L 528.83,685.93 L 523.16,691.75 L 520.14,694.86 L 516.70,698.42 L 515.05,700.11 L 511.83,703.45 L 510.33,705.01 L 507.40,708.06 L 506.07,709.45 L 503.50,712.14 L 502.37,713.32 L 500.22,715.58 L 499.33,716.52 L 497.68,718.27 L 497.07,718.94 L 495.98,720.12 L 495.67,720.47 L 495.22,721.00 L 495.25,721.00 L 495.78,720.82 L 496.41,720.54 L 496.85,720.32 L 497.81,719.83 L 498.39,719.52 L 499.63,718.85 L 500.35,718.46 L 503.45,716.74 L 505.27,715.70 L 509.08,713.51 L 511.14,712.31 L 519.69,707.28 L 523.80,704.80 L 527.82,702.34 L 529.63,701.22 L 533.09,699.05 L 534.50,698.13 L 536.21,697.04 L 537.60,696.17 L 538.40,695.68 L 541.86,693.57 L 543.85,692.37 L 552.38,687.30 L 556.50,684.92 L 563.10,681.08 L 567.65,678.40 L 569.96,677.03 L 579.21,671.50 L 583.58,668.84 L 587.87,666.22 L 589.88,664.99 L 593.78,662.57 L 595.53,661.47 L 598.89,659.35 L 600.32,658.44 L 602.98,656.71 L 604.00,656.02 L 606.69,654.29 L 608.81,652.97 L 609.94,652.29 L 612.23,650.92 L 613.35,650.27 L 615.54,649.02 L 616.50,648.49 L 619.93,646.56 L 622.64,644.98 L 624.09,644.12 L 627.02,642.36 L 628.45,641.49 L 631.26,639.76 L 632.50,638.98 L 636.59,636.42 L 639.56,634.57 L 641.06,633.65 L 644.02,631.83 L 645.38,631.01 L 647.97,629.44 L 649.00,628.83 L 652.39,626.79 L 654.84,625.31 L 656.06,624.56 L 658.48,623.08 L 659.58,622.40 L 661.67,621.10 L 662.50,620.58 L 665.52,618.71 L 667.97,617.22 L 669.31,616.41 L 672.03,614.76 L 673.38,613.96 L 676.04,612.37 L 677.25,611.66 L 685.99,606.50 L 687.21,471.50 M 587.00,288.46 L 586.10,289.01 L 585.26,289.55 L 584.77,289.87 L 582.60,291.29 L 581.50,292.03 L 579.45,293.37 L 577.63,294.51 L 576.53,295.20 L 574.19,296.64 L 572.86,297.45 L 570.11,299.13 L 568.60,300.04 L 565.51,301.90 L 563.87,302.88 L 560.53,304.87 L 558.80,305.90 L 551.76,310.05 L 548.23,312.11 L 541.14,316.36 L 538.95,317.72 L 538.02,318.30 L 536.31,319.40 L 535.73,319.80 L 534.64,320.51 L 533.72,321.10 L 533.18,321.44 L 530.79,322.93 L 529.36,323.81 L 526.39,325.62 L 524.80,326.58 L 521.58,328.50 L 520.00,329.43 L 510.73,334.90 L 504.31,338.70 L 501.07,340.62 L 494.58,344.47 L 491.39,346.36 L 485.06,350.12 L 482.05,351.92 L 476.14,355.44 L 473.42,357.06 L 468.17,360.20 L 465.88,361.57 L 463.65,362.91 L 462.63,363.53 L 460.66,364.71 L 459.78,365.24 L 458.11,366.25 L 457.39,366.69 L 456.04,367.51 L 455.50,367.84 L 449.73,371.37 L 445.68,373.84 L 443.58,375.11 L 434.99,380.32 L 430.55,383.00 L 421.63,388.39 L 417.21,391.03 L 408.47,396.28 L 404.35,398.74 L 400.28,401.16 L 398.35,402.32 L 394.54,404.58 L 392.76,405.64 L 389.28,407.70 L 387.68,408.64 L 384.60,410.46 L 383.22,411.26 L 380.60,412.80 L 379.48,413.45 L 377.37,414.67 L 376.54,415.14 L 375.03,416.00 L 374.52,416.28 L 373.66,416.74 L 373.50,416.80 L 370.50,418.04 L 370.22,483.27 L 370.15,496.48 L 370.09,504.98 L 370.06,509.01 L 370.00,516.91 L 369.96,520.57 L 369.89,527.69 L 369.85,530.88 L 369.81,534.01 L 369.79,535.47 L 369.75,538.33 L 369.73,539.64 L 369.68,542.19 L 369.66,543.35 L 369.62,545.58 L 369.60,546.56 L 369.56,548.45 L 369.54,549.25 L 369.50,550.76 L 369.47,551.36 L 369.43,552.48 L 369.41,552.88 L 369.37,553.57 L 369.35,553.75 L 369.22,555.16 L 369.19,555.79 L 369.17,556.98 L 369.19,557.46 L 369.27,558.32 L 369.34,558.58 L 369.52,558.99 L 369.63,558.99 L 370.44,558.34 L 371.39,557.32 L 372.01,556.58 L 373.34,554.95 L 374.10,553.97 L 375.68,551.91 L 376.50,550.78 L 377.98,548.77 L 379.20,547.12 L 379.90,546.17 L 381.37,544.19 L 382.18,543.10 L 383.84,540.87 L 384.73,539.68 L 388.41,534.74 L 390.33,532.16 L 394.21,526.98 L 396.08,524.50 L 409.66,506.41 L 409.30,436.90 L 412.40,435.31 L 413.62,434.66 L 414.67,434.07 L 415.30,433.70 L 416.63,432.92 L 417.39,432.47 L 418.99,431.51 L 419.88,430.97 L 421.73,429.85 L 422.74,429.23 L 424.83,427.95 L 425.95,427.26 L 430.65,424.34 L 433.28,422.70 L 438.71,419.28 L 441.65,417.42 L 447.68,413.60 L 450.87,411.56 L 457.34,407.42 L 460.70,405.26 L 467.48,400.89 L 470.94,398.65 L 475.53,395.66 L 478.32,393.85 L 479.59,393.02 L 482.05,391.41 L 483.17,390.67 L 485.34,389.23 L 486.33,388.56 L 490.05,386.04 L 491.63,384.92 L 494.62,382.75 L 495.96,381.71 L 498.53,379.66 L 499.78,378.58 L 502.26,376.39 L 503.57,375.17 L 506.26,372.60 L 507.80,371.09 L 509.37,369.54 L 510.22,368.69 L 511.98,366.95 L 512.94,365.99 L 526.02,352.85 L 534.94,343.81 L 539.35,339.30 L 548.10,330.32 L 552.26,326.02 L 556.38,321.76 L 558.35,319.71 L 562.24,315.66 L 564.08,313.73 L 567.69,309.95 L 569.37,308.18 L 572.64,304.72 L 574.13,303.13 L 577.01,300.06 L 578.29,298.68 L 580.72,296.05 L 581.75,294.92 L 583.68,292.79 L 584.44,291.93 L 585.81,290.35 L 586.26,289.79 L 587.02,288.84 L 587.15,288.61 L 587.23,288.33 Z" fill="rgb(41,42,45)"/>
<path d="M 386.70,800.40 L 386.98,800.00 L 387.75,798.76 L 388.16,798.08 L 389.11,796.44 L 392.01,791.00 L 392.46,790.11 L 393.76,787.73 L 394.45,786.47 L 396.09,783.62 L 396.93,782.17 L 398.71,779.20 L 401.31,775.00 L 401.99,773.93 L 403.52,771.44 L 404.31,770.14 L 406.05,767.24 L 406.94,765.75 L 408.83,762.52 L 409.79,760.88 L 411.79,757.39 L 413.82,753.86 L 418.02,746.35 L 424.23,735.00 L 424.64,734.24 L 425.82,732.08 L 426.46,730.91 L 427.96,728.18 L 432.77,719.50 L 433.53,718.12 L 435.28,714.99 L 436.17,713.38 L 438.01,710.09 L 438.92,708.46 L 440.62,705.40 L 442.79,701.50 L 444.01,699.30 L 446.45,695.12 L 447.01,694.16 L 447.95,692.60 L 448.98,691.00 L 449.10,690.83 L 449.50,690.22 L 449.72,689.88 L 450.30,688.96 L 450.61,688.47 L 451.36,687.29 L 451.74,686.67 L 452.62,685.27 L 453.52,683.82 L 455.59,680.44 L 458.91,675.00 L 460.17,672.92 L 462.56,669.00 L 463.73,667.08 L 465.95,663.44 L 468.13,659.86 L 472.09,653.39 L 474.02,650.24 L 477.62,644.42 L 479.39,641.57 L 482.80,636.11 L 484.49,633.41 L 487.89,628.03 L 489.61,625.33 L 493.18,619.75 L 495.00,616.91 L 498.92,610.85 L 499.93,609.28 L 502.04,606.02 L 505.38,600.88 L 507.95,596.94 L 512.66,589.57 L 513.80,587.78 L 515.94,584.40 L 516.98,582.74 L 518.91,579.63 L 519.85,578.12 L 521.55,575.34 L 522.37,573.99 L 523.81,571.57 L 524.50,570.41 L 525.66,568.40 L 527.06,565.88 L 527.26,565.51 L 527.42,565.05 L 527.45,564.85 L 527.16,564.74 L 526.94,564.72 L 526.07,564.94 L 523.93,565.64 L 523.52,565.78 L 522.23,566.02 L 521.48,566.13 L 519.34,566.32 L 518.74,566.36 L 517.34,566.44 L 516.60,566.47 L 514.91,566.54 L 514.03,566.57 L 512.01,566.63 L 510.96,566.65 L 508.60,566.70 L 507.37,566.72 L 504.62,566.75 L 503.20,566.77 L 500.04,566.79 L 498.41,566.80 L 494.82,566.82 L 492.97,566.82 L 488.91,566.83 L 486.81,566.83 L 482.26,566.83 L 479.91,566.83 L 474.83,566.82 L 472.22,566.81 L 466.58,566.79 L 457.47,566.76 L 395.01,566.50 L 402.09,558.00 L 403.07,556.83 L 405.45,553.88 L 406.69,552.34 L 409.35,548.96 L 410.69,547.25 L 413.31,543.84 L 416.84,539.15 L 417.37,538.44 L 418.78,536.56 L 419.54,535.55 L 421.36,533.15 L 422.31,531.89 L 424.46,529.06 L 425.57,527.61 L 427.99,524.45 L 430.45,521.24 L 435.84,514.23 L 444.03,503.65 L 446.72,500.19 L 452.24,493.06 L 454.97,489.52 L 460.14,482.80 L 461.38,481.19 L 463.70,478.17 L 464.82,476.71 L 466.84,474.06 L 467.81,472.80 L 469.46,470.62 L 471.45,468.00 L 473.62,465.11 L 478.52,458.82 L 479.70,457.33 L 481.85,454.66 L 482.36,454.03 L 483.27,452.92 L 484.47,451.50 L 485.17,450.67 L 487.02,448.42 L 487.99,447.22 L 490.18,444.47 L 491.29,443.07 L 493.54,440.16 L 496.71,436.00 L 497.69,434.69 L 499.97,431.71 L 501.14,430.19 L 503.59,427.05 L 504.81,425.50 L 507.14,422.58 L 510.16,418.87 L 511.03,417.82 L 513.06,415.37 L 514.09,414.11 L 516.25,411.48 L 517.33,410.17 L 519.36,407.68 L 522.00,404.44 L 522.76,403.50 L 524.65,401.20 L 525.64,400.00 L 527.80,397.41 L 528.89,396.11 L 531.06,393.55 L 534.02,390.07 L 534.92,389.03 L 536.99,386.58 L 538.04,385.32 L 540.24,382.67 L 541.33,381.35 L 543.38,378.82 L 546.02,375.50 L 546.40,375.02 L 547.37,373.81 L 547.88,373.17 L 549.10,371.69 L 550.36,370.16 L 553.42,366.50 L 563.50,354.68 L 565.15,352.78 L 568.44,348.98 L 570.05,347.11 L 573.00,343.66 L 573.71,342.84 L 574.99,341.34 L 575.61,340.61 L 576.69,339.33 L 577.21,338.72 L 578.05,337.72 L 579.00,336.57 L 579.24,336.28 L 579.92,335.46 L 580.29,335.01 L 581.19,333.94 L 582.14,332.80 L 584.56,329.94 L 585.82,328.44 L 588.65,325.11 L 593.00,320.01 L 595.89,316.64 L 602.03,309.24 L 603.48,307.47 L 606.04,304.31 L 606.63,303.57 L 607.68,302.24 L 609.00,300.55 L 609.76,299.55 L 611.52,297.32 L 612.43,296.18 L 614.32,293.86 L 615.26,292.72 L 617.06,290.59 L 619.39,287.92 L 620.06,287.17 L 621.76,285.18 L 622.66,284.13 L 624.62,281.74 L 625.61,280.53 L 627.60,278.03 L 630.34,274.50 L 630.76,273.95 L 631.75,272.68 L 632.26,272.02 L 633.41,270.57 L 634.60,269.08 L 637.29,265.77 L 638.66,264.09 L 641.48,260.71 L 645.48,256.00 L 646.72,254.56 L 649.23,251.61 L 650.46,250.15 L 652.75,247.41 L 653.84,246.10 L 655.64,243.88 L 656.04,243.38 L 656.72,242.52 L 657.50,241.50 L 658.20,240.56 L 659.85,238.43 L 660.72,237.33 L 662.64,234.96 L 664.62,232.55 L 669.01,227.44 L 671.22,224.91 L 675.51,220.20 L 676.54,219.09 L 678.46,217.08 L 681.03,214.50 L 687.24,208.50 L 683.09,214.50 L 682.52,215.32 L 681.16,217.28 L 680.46,218.28 L 678.99,220.41 L 678.25,221.47 L 676.84,223.50 L 674.97,226.18 L 674.43,226.97 L 673.03,229.13 L 672.29,230.28 L 670.66,232.94 L 665.85,241.18 L 665.14,242.47 L 663.54,245.35 L 662.72,246.82 L 661.06,249.82 L 660.24,251.30 L 658.71,254.05 L 656.79,257.50 L 656.26,258.46 L 654.88,260.89 L 654.16,262.16 L 652.56,264.94 L 651.74,266.35 L 650.11,269.15 L 647.84,273.00 L 646.44,275.34 L 643.54,280.59 L 642.86,281.84 L 641.68,284.12 L 640.34,286.89 L 640.00,287.63 L 638.98,289.70 L 638.42,290.81 L 637.07,293.37 L 632.63,301.39 L 631.90,302.64 L 630.08,305.83 L 629.13,307.51 L 627.04,311.20 L 625.99,313.07 L 623.90,316.82 L 621.02,322.00 L 620.59,322.79 L 619.57,324.64 L 619.04,325.60 L 617.86,327.73 L 616.64,329.91 L 613.91,334.82 L 612.52,337.31 L 609.69,342.38 L 605.71,349.50 L 603.35,353.70 L 598.92,361.60 L 596.75,365.47 L 592.69,372.74 L 590.71,376.30 L 587.01,382.97 L 585.20,386.22 L 581.84,392.30 L 580.20,395.27 L 577.18,400.79 L 575.70,403.48 L 572.99,408.46 L 571.68,410.88 L 569.27,415.35 L 565.99,421.50 L 564.83,423.70 L 562.49,427.88 L 561.95,428.84 L 561.02,430.40 L 560.01,432.00 L 559.89,432.17 L 559.55,432.69 L 559.37,432.98 L 558.91,433.72 L 558.42,434.50 L 557.18,436.56 L 556.53,437.66 L 555.06,440.13 L 554.32,441.40 L 552.80,444.01 L 552.04,445.31 L 550.62,447.79 L 549.93,448.98 L 548.77,451.05 L 548.23,452.01 L 547.48,453.40 L 547.33,453.69 L 547.13,454.09 L 547.00,454.41 L 547.00,454.42 L 547.32,454.44 L 547.53,454.45 L 548.26,454.47 L 548.67,454.47 L 549.78,454.49 L 550.38,454.49 L 551.86,454.51 L 552.64,454.51 L 554.46,454.52 L 555.41,454.52 L 557.55,454.53 L 558.66,454.53 L 561.11,454.53 L 562.36,454.53 L 565.09,454.53 L 567.88,454.53 L 574.21,454.51 L 577.49,454.50 L 584.67,454.47 L 588.35,454.46 L 596.21,454.42 L 608.57,454.35 L 670.15,453.96 L 667.09,457.73 L 666.88,457.99 L 666.21,458.80 L 665.84,459.25 L 664.89,460.41 L 664.38,461.03 L 663.19,462.48 L 662.57,463.24 L 661.17,464.93 L 659.74,466.68 L 656.46,470.66 L 651.26,476.96 L 648.73,480.03 L 643.83,485.99 L 641.42,488.94 L 636.77,494.63 L 634.48,497.44 L 630.12,502.83 L 627.98,505.48 L 623.94,510.52 L 621.96,512.99 L 618.26,517.64 L 616.46,519.92 L 613.14,524.14 L 611.54,526.19 L 608.64,529.94 L 604.78,535.00 L 602.54,537.98 L 598.10,543.81 L 596.94,545.31 L 594.46,548.52 L 593.18,550.18 L 590.34,553.82 L 588.86,555.72 L 585.52,559.99 L 584.64,561.11 L 582.77,563.49 L 581.81,564.70 L 579.76,567.30 L 578.71,568.63 L 576.47,571.48 L 575.32,572.93 L 572.86,576.05 L 571.60,577.64 L 568.91,581.04 L 564.60,586.50 L 562.64,588.98 L 558.74,593.98 L 556.82,596.44 L 553.31,601.03 L 552.48,602.13 L 550.95,604.15 L 550.22,605.13 L 548.93,606.86 L 548.32,607.69 L 547.31,609.08 L 546.18,610.69 L 545.61,611.54 L 544.10,613.62 L 543.31,614.71 L 541.52,617.06 L 540.62,618.23 L 538.77,620.55 L 536.18,623.69 L 535.37,624.62 L 533.37,627.08 L 532.32,628.38 L 530.04,631.29 L 528.88,632.77 L 526.59,635.77 L 523.46,640.00 L 522.52,641.31 L 520.37,644.16 L 519.27,645.60 L 517.02,648.47 L 515.91,649.88 L 513.83,652.42 L 511.20,655.50 L 510.83,655.91 L 509.89,657.01 L 509.39,657.60 L 508.22,659.01 L 507.61,659.75 L 506.26,661.42 L 505.57,662.28 L 504.08,664.14 L 502.57,666.05 L 499.33,670.20 L 494.52,676.50 L 492.62,679.02 L 489.02,683.79 L 487.25,686.13 L 483.89,690.55 L 482.23,692.72 L 479.09,696.83 L 477.55,698.84 L 474.60,702.66 L 473.15,704.54 L 470.37,708.10 L 469.00,709.85 L 466.37,713.19 L 463.77,716.47 L 458.91,722.49 L 456.52,725.42 L 451.92,730.91 L 449.64,733.61 L 445.13,738.81 L 442.87,741.40 L 438.24,746.55 L 430.96,754.47 L 429.16,756.40 L 425.19,760.90 L 424.24,761.99 L 422.53,764.00 L 420.49,766.50 L 420.22,766.85 L 419.41,767.80 L 418.97,768.32 L 417.86,769.58 L 417.27,770.24 L 415.90,771.75 L 415.19,772.53 L 413.61,774.25 L 411.99,776.01 L 408.31,779.92 L 406.44,781.91 L 402.54,786.00 L 400.60,788.02 L 396.86,791.88 L 395.05,793.74 L 391.85,796.97 L 391.11,797.72 L 389.78,799.03 L 389.15,799.66 L 388.08,800.68 L 387.59,801.14 L 386.84,801.82 L 386.12,802.40 L 385.89,802.53 L 385.65,802.57 L 385.56,802.55 L 385.60,802.28 L 385.65,802.10 L 385.95,801.54 L 386.13,801.23 M 520.14,694.86 L 523.16,691.75 L 528.83,685.93 L 531.61,683.08 L 536.84,677.74 L 539.40,675.14 L 544.22,670.26 L 546.58,667.88 L 551.03,663.43 L 553.21,661.25 L 557.33,657.19 L 559.35,655.20 L 563.19,651.48 L 565.07,649.66 L 568.65,646.25 L 570.42,644.58 L 573.79,641.44 L 575.46,639.90 L 578.66,637.00 L 580.25,635.58 L 583.33,632.88 L 586.38,630.22 L 592.28,625.35 L 595.21,622.96 L 601.11,618.41 L 610.32,611.61 L 612.57,610.00 L 617.57,606.22 L 618.76,605.31 L 620.91,603.62 L 623.50,601.52 L 624.96,600.29 L 628.51,597.57 L 630.33,596.20 L 634.10,593.55 L 635.96,592.27 L 639.30,590.12 L 640.08,589.64 L 641.45,588.85 L 643.13,587.98 L 643.72,587.71 L 644.56,587.13 L 644.94,586.80 L 645.45,585.83 L 645.68,585.25 L 646.01,583.53 L 646.09,583.03 L 646.24,581.83 L 646.46,579.69 L 646.51,579.20 L 646.60,577.76 L 646.64,576.96 L 646.71,574.98 L 646.75,573.92 L 646.81,571.48 L 646.83,570.21 L 646.88,567.39 L 646.92,564.50 L 646.94,557.98 L 646.89,547.80 L 646.63,523.00 L 649.17,520.25 L 649.52,519.87 L 650.65,518.55 L 651.26,517.82 L 652.77,515.96 L 657.84,509.50 L 658.68,508.40 L 660.82,505.68 L 661.93,504.27 L 664.39,501.21 L 665.64,499.67 L 668.12,496.63 L 671.55,492.50 L 673.64,490.02 L 678.10,484.38 L 679.16,483.02 L 681.02,480.54 L 683.18,477.50 L 687.21,471.50 L 686.60,539.00 L 685.99,606.50 L 677.25,611.66 L 676.04,612.37 L 673.38,613.96 L 672.03,614.76 L 669.31,616.41 L 667.97,617.22 L 665.52,618.71 L 662.50,620.58 L 661.67,621.10 L 659.58,622.40 L 658.48,623.08 L 656.06,624.56 L 654.84,625.31 L 652.39,626.79 L 649.00,628.83 L 647.97,629.44 L 645.38,631.01 L 644.02,631.83 L 641.06,633.65 L 639.56,634.57 L 636.59,636.42 L 632.50,638.98 L 631.26,639.76 L 628.45,641.49 L 627.02,642.36 L 624.09,644.12 L 622.64,644.98 L 619.93,646.56 L 616.50,648.49 L 615.54,649.02 L 613.35,650.27 L 612.23,650.92 L 609.94,652.29 L 608.81,652.97 L 606.69,654.29 L 604.00,656.02 L 602.98,656.71 L 600.32,658.44 L 598.89,659.35 L 595.53,661.47 L 593.78,662.57 L 589.88,664.99 L 587.87,666.22 L 583.58,668.84 L 579.21,671.50 L 569.96,677.03 L 567.65,678.40 L 563.10,681.08 L 556.50,684.92 L 552.38,687.30 L 543.85,692.37 L 541.86,693.57 L 538.40,695.68 L 537.60,696.17 L 536.21,697.04 L 534.50,698.13 L 533.09,699.05 L 529.63,701.22 L 527.82,702.34 L 523.80,704.80 L 519.69,707.28 L 511.14,712.31 L 509.08,713.51 L 505.27,715.70 L 503.45,716.74 L 500.35,718.46 L 499.63,718.85 L 498.39,719.52 L 497.81,719.83 L 496.85,720.32 L 496.41,720.54 L 495.78,720.82 L 495.25,721.00 L 495.22,721.00 L 495.67,720.47 L 495.98,720.12 L 497.07,718.94 L 497.68,718.27 L 499.33,716.52 L 500.22,715.58 L 502.37,713.32 L 503.50,712.14 L 506.07,709.45 L 507.40,708.06 L 510.33,705.01 L 511.83,703.45 L 515.05,700.11 L 516.70,698.42 M 369.35,553.75 L 369.37,553.57 L 369.41,552.88 L 369.43,552.48 L 369.47,551.36 L 369.50,550.76 L 369.54,549.25 L 369.56,548.45 L 369.60,546.56 L 369.62,545.58 L 369.66,543.35 L 369.68,542.19 L 369.73,539.64 L 369.75,538.33 L 369.79,535.47 L 369.81,534.01 L 369.85,530.88 L 369.89,527.69 L 369.96,520.57 L 370.00,516.91 L 370.06,509.01 L 370.09,504.98 L 370.15,496.48 L 370.22,483.27 L 370.50,418.04 L 373.50,416.80 L 373.66,416.74 L 374.52,416.28 L 375.03,416.00 L 376.54,415.14 L 377.37,414.67 L 379.48,413.45 L 380.60,412.80 L 383.22,411.26 L 384.60,410.46 L 387.68,408.64 L 389.28,407.70 L 392.76,405.64 L 394.54,404.58 L 398.35,402.32 L 400.28,401.16 L 404.35,398.74 L 408.47,396.28 L 417.21,391.03 L 421.63,388.39 L 430.55,383.00 L 434.99,380.32 L 443.58,375.11 L 445.68,373.84 L 449.73,371.37 L 455.50,367.84 L 456.04,367.51 L 457.39,366.69 L 458.11,366.25 L 459.78,365.24 L 460.66,364.71 L 462.63,363.53 L 463.65,362.91 L 465.88,361.57 L 468.17,360.20 L 473.42,357.06 L 476.14,355.44 L 482.05,351.92 L 485.06,350.12 L 491.39,346.36 L 494.58,344.47 L 501.07,340.62 L 504.31,338.70 L 510.73,334.90 L 520.00,329.43 L 521.58,328.50 L 524.80,326.58 L 526.39,325.62 L 529.36,323.81 L 530.79,322.93 L 533.18,321.44 L 533.72,321.10 L 534.64,320.51 L 535.73,319.80 L 536.31,319.40 L 538.02,318.30 L 538.95,317.72 L 541.14,316.36 L 548.23,312.11 L 551.76,310.05 L 558.80,305.90 L 560.53,304.87 L 563.87,302.88 L 565.51,301.90 L 568.60,300.04 L 570.11,299.13 L 572.86,297.45 L 574.19,296.64 L 576.53,295.20 L 577.63,294.51 L 579.45,293.37 L 581.50,292.03 L 582.60,291.29 L 584.77,289.87 L 585.26,289.55 L 586.10,289.01 L 587.00,288.46 L 587.23,288.33 L 587.15,288.61 L 587.02,288.84 L 586.26,289.79 L 585.81,290.35 L 584.44,291.93 L 583.68,292.79 L 581.75,294.92 L 580.72,296.05 L 578.29,298.68 L 577.01,300.06 L 574.13,303.13 L 572.64,304.72 L 569.37,308.18 L 567.69,309.95 L 564.08,313.73 L 562.24,315.66 L 558.35,319.71 L 556.38,321.76 L 552.26,326.02 L 548.10,330.32 L 539.35,339.30 L 534.94,343.81 L 526.02,352.85 L 512.94,365.99 L 511.98,366.95 L 510.22,368.69 L 509.37,369.54 L 507.80,371.09 L 506.26,372.60 L 503.57,375.17 L 502.26,376.39 L 499.78,378.58 L 498.53,379.66 L 495.96,381.71 L 494.62,382.75 L 491.63,384.92 L 490.05,386.04 L 486.33,388.56 L 485.34,389.23 L 483.17,390.67 L 482.05,391.41 L 479.59,393.02 L 478.32,393.85 L 475.53,395.66 L 470.94,398.65 L 467.48,400.89 L 460.70,405.26 L 457.34,407.42 L 450.87,411.56 L 447.68,413.60 L 441.65,417.42 L 438.71,419.28 L 433.28,422.70 L 430.65,424.34 L 425.95,427.26 L 424.83,427.95 L 422.74,429.23 L 421.73,429.85 L 419.88,430.97 L 418.99,431.51 L 417.39,432.47 L 416.63,432.92 L 415.30,433.70 L 414.67,434.07 L 413.62,434.66 L 412.40,435.31 L 409.30,436.90 L 409.48,471.66 L 409.66,506.41 L 396.08,524.50 L 394.21,526.98 L 390.33,532.16 L 388.41,534.74 L 384.73,539.68 L 383.84,540.87 L 382.18,543.10 L 381.37,544.19 L 379.90,546.17 L 379.20,547.12 L 377.98,548.77 L 376.50,550.78 L 375.68,551.91 L 374.10,553.97 L 373.34,554.95 L 372.01,556.58 L 371.39,557.32 L 370.44,558.34 L 369.63,558.99 L 369.52,558.99 L 369.34,558.58 L 369.27,558.32 L 369.19,557.46 L 369.17,556.98 L 369.19,555.79 L 369.22,555.16 Z" fill="rgb(234,238,234)"/>
</g>
</svg>